<?xml version="1.0" encoding="utf-8"?>
<svg viewBox="0 0 184.464 144.9" style="enable-background:new 0 0 595.3 144.9;" xmlns="http://www.w3.org/2000/svg">
  <defs>
    <style type="text/css">
	.st0{fill:#FFFFFF;}
	.st1{fill:#7EC6AE;}
	.st2{fill:url(#SVGID_1_);}
	.st3{fill:url(#SVGID_00000173864376829072804800000004138713401879058067_);}
	.st4{fill:url(#SVGID_00000086693244336778827750000014044550545666909583_);}
	.st5{fill:url(#SVGID_00000014592164033100001550000006644846486589309595_);}
	.st6{fill:url(#SVGID_00000076579526920382782660000014801979090334866319_);}
	.st7{fill:url(#SVGID_00000090290203498309471230000010283648830872600994_);}
	.st8{fill:url(#SVGID_00000172431444237736259110000008544166049847350187_);}
	.st9{fill:url(#SVGID_00000155114823324041075930000016243191094540928901_);}
	.st10{fill:url(#SVGID_00000053535836719782931140000010054446768420321440_);}
	.st11{fill:url(#SVGID_00000122682960096441377400000014923266233997387412_);}
	.st12{fill:url(#SVGID_00000070082498201622058700000008127676067631615154_);}
	.st13{fill:url(#SVGID_00000151523681646141134610000005690658029961147789_);}
	.st14{fill:url(#SVGID_00000099626854187016042450000003460159485846383519_);}
	.st15{fill:url(#SVGID_00000167392331089681963170000015396348357004606891_);}
	.st16{fill:url(#SVGID_00000163049280546214909350000016551764791578292370_);}
	.st17{fill:url(#SVGID_00000030484848779977850950000016299329715734320279_);}
	.st18{fill:url(#SVGID_00000119111734555980155400000013078346194084976529_);}
	.st19{fill:url(#SVGID_00000114752931909495664940000012854758291930630309_);}
	.st20{fill:url(#SVGID_00000076563799351926119500000016407156960777708682_);}
	.st21{fill:url(#SVGID_00000099621052491261764640000016929617885589480590_);}
	.st22{fill:url(#SVGID_00000170966136753095245320000009263607704325512846_);}
	.st23{fill:url(#SVGID_00000071522549666347313550000012462354429240312196_);}
	.st24{fill:url(#SVGID_00000031929196405823265400000016642397191834833596_);}
	.st25{fill:url(#SVGID_00000136396322551354441350000002910094722528498332_);}
	.st26{fill:url(#SVGID_00000158004618180849341040000007926832653953405582_);}
</style>
  </defs>
  <path class="st2" d="M39.4,92.9c-0.3,0-0.7-0.2-0.8-0.5c-3.3-7.8-3.6-10.5-3.9-15.4c0-0.5,0.3-0.9,0.8-1c0.5,0,0.9,0.3,1,0.8 c0.3,4.8,0.6,7.3,3.8,14.9c0.2,0.5,0,1-0.5,1.2C39.7,92.9,39.5,92.9,39.4,92.9L39.4,92.9z" style="fill: rgb(0, 0, 0); stroke: rgb(255, 255, 255);"/>
  <path style="stroke: rgb(255, 255, 255);" d="M40.6,72.6c-0.3,0-0.6-0.2-0.8-0.5 c-0.2-0.4-0.1-1,0.3-1.2c5.3-3,10-5.5,14.5-8c4.7-2.5,9.5-5.1,15.1-8.3c0.4-0.2,1-0.1,1.2,0.3c0.2,0.4,0.1,1-0.3,1.2 c-5.5,3.1-10.4,5.8-15.1,8.3c-4.5,2.4-9.2,5-14.5,8C40.9,72.6,40.7,72.6,40.6,72.6L40.6,72.6z"/>
  <path style="stroke: rgb(255, 255, 255);" d="M70.8,76c-0.5,0-0.9-0.4-0.9-0.9V55 c0-0.5,0.4-0.9,0.9-0.9c0.5,0,0.9,0.4,0.9,0.9v20.1C71.7,75.6,71.3,76,70.8,76z"/>
  <path style="stroke: rgb(255, 255, 255);" d="M71,77.3c-0.5,0-0.8-0.3-0.9-0.8 c0-0.5,0.3-0.9,0.8-1c0.1,0,0.1,0,0.2,0l1.9-1.1c3-1.7,6.1-3.4,9.2-5.2c0.4-0.3,1-0.1,1.2,0.3c0.2,0.4,0.1,1-0.3,1.2 c-3,1.8-6.2,3.5-9.2,5.2l-2.1,1.2c-0.2,0.1-0.4,0.1-0.6,0.1C71.2,77.3,71.1,77.3,71,77.3C71,77.3,71,77.3,71,77.3L71,77.3z M70.9,75.6L70.9,75.6L70.9,75.6z"/>
  <path style="stroke: rgb(255, 255, 255);" d="M28.6,102.3c-0.3,0-0.6-0.2-0.8-0.5 c-0.2-0.4-0.1-1,0.3-1.2c2.5-1.4,4.5-2.6,6.5-3.8c1.1-0.6,2.2-1.3,3.4-2c0.4-0.3,1-0.1,1.2,0.3c0.3,0.4,0.1,1-0.3,1.2 c-1.2,0.7-2.3,1.4-3.4,2c-2.1,1.2-4.1,2.4-6.6,3.8C28.9,102.2,28.7,102.3,28.6,102.3L28.6,102.3z"/>
  <path style="stroke: rgb(255, 255, 255);" d="M83.3,66.8L83.3,66.8 c-0.4,0-0.7-0.3-0.7-0.7c0-7.3,0-15.7,0-24.2c0-10.1,0-20.4,0.1-29.1c0-1.1,0-2.3,0-3.4V7.7c0-0.4,0.3-0.7,0.7-0.7s0.7,0.3,0.7,0.7 v1.7c0,1.2,0,2.3,0,3.4c0,8.7,0,18.9-0.1,29.1c0,8.5,0,16.9,0,24.2C84,66.4,83.7,66.8,83.3,66.8L83.3,66.8z"/>
  <path style="stroke: rgb(255, 255, 255);" d="M28.6,101.7c-0.3,0-0.7-0.2-0.8-0.5 c-9.3-19.9-9.2-39.4,0-58.1c5.6-11.4,14.5-20.8,25.5-27.2c9.4-5.5,20.1-8.6,30.1-8.9c0.5,0,0.9,0.4,0.9,0.9c0,0.5-0.4,0.9-0.9,0.9 c-9.7,0.3-20.1,3.4-29.2,8.7c-10.7,6.3-19.3,15.4-24.8,26.5c-9,18.2-9,37.2,0,56.6c0.2,0.5,0,1-0.4,1.2 C28.8,101.6,28.7,101.7,28.6,101.7z"/>
  <path style="stroke: rgb(255, 255, 255);" d="M33.6,94.1c-0.3,0-0.7-0.2-0.8-0.5 c-7.8-16.7-7.8-33.1,0-48.9c4.7-9.6,12.2-17.5,21.4-22.9c7.9-4.6,16.9-7.3,25.3-7.5c0.5,0,0.9,0.4,0.9,0.9c0,0.5-0.4,0.9-0.9,0.9 c-8.1,0.2-16.8,2.8-24.4,7.3c-9,5.2-16.1,12.9-20.7,22.1c-7.5,15.2-7.6,31.1,0,47.3c0.2,0.5,0,1-0.4,1.2 C33.9,94.1,33.8,94.1,33.6,94.1L33.6,94.1z"/>
  <path style="stroke: rgb(255, 255, 255);" d="M35.6,61.8c-0.5,0-0.9-0.4-0.9-0.9l0,0 C34.8,49,49.4,31.7,61.9,24.7c3.2-1.8,6.2-2.9,8.9-3.3c0.5-0.1,0.9,0.3,1,0.8c0.1,0.5-0.3,0.9-0.8,1c-2.5,0.4-5.3,1.4-8.3,3.1 c-13.2,7.3-26.2,24.4-26.3,34.6v0C36.5,61.4,36.1,61.8,35.6,61.8z"/>
  <path style="stroke: rgb(255, 255, 255);" d="M36,63.3c-0.3,0-0.6-0.2-0.8-0.5 c-0.2-0.4-0.1-1,0.3-1.2c6.1-3.4,13.2-7.6,20-11.7c6.1-3.6,12.4-7.3,17.8-10.4c0,0,0.2-0.3,0.2-0.5c0-1.6,0-9.8,0-13.7v-2 c0-0.5,0.4-0.9,0.9-0.9c0.5,0,0.9,0.4,0.9,0.9v2c0,4.2,0,12.1,0,13.8c0,0.7-0.4,1.6-1.1,2c-5.4,3.1-11.7,6.8-17.8,10.4 c-6.9,4-14,8.2-20.1,11.7C36.3,63.2,36.2,63.3,36,63.3L36,63.3z"/>
  <path style="stroke: rgb(255, 255, 255);" d="M33.6,70.9c-0.3,0-0.6-0.2-0.8-0.5 c-0.2-0.4-0.1-1,0.3-1.2c6.1-3.4,15.4-8.9,24.4-14.2c8.2-4.8,15.9-9.4,21.3-12.4c0,0,0.2-0.3,0.2-0.5c0.1-1.7,0-18.1,0-24.3v-2.3 c0-0.5,0.4-0.9,0.9-0.9c0.5,0,0.9,0.4,0.9,0.9v2.3c0,6.2,0,22.6,0,24.3c0,0.7-0.4,1.6-1.1,2c-5.4,3.1-13.1,7.6-21.3,12.4 c-9,5.3-18.3,10.7-24.4,14.2C33.9,70.9,33.7,70.9,33.6,70.9z"/>
  <path style="stroke: rgb(255, 255, 255);" d="M154.1,77.9 C154.1,77.9,154,77.9,154.1,77.9c-0.6,0-0.9-0.5-0.9-1c1.6-16.8-3.9-33.4-15.5-46.6C126,17.1,109.7,9.2,93,8.7 c-0.5,0-0.9-0.4-0.9-0.9s0.4-0.9,0.9-0.9c0,0,0,0,0,0c17.2,0.5,34,8.7,46,22.3c11.9,13.6,17.6,30.6,16,47.9 C154.9,77.6,154.5,77.9,154.1,77.9L154.1,77.9z"/>
  <path style="stroke: rgb(255, 255, 255);" d="M147.7,67c-0.4,0-0.8-0.3-0.9-0.8 c-1.5-11.9-7.1-24.1-15.3-33.5c-6.6-7.6-18.1-16.9-34.8-17.9c-0.5,0-0.9-0.5-0.8-0.9c0-0.5,0.5-0.9,0.9-0.8 c17.4,1,29.2,10.6,36.1,18.5c8.4,9.7,14.2,22.2,15.8,34.4c0.1,0.5-0.3,0.9-0.8,1C147.8,67,147.8,67,147.7,67L147.7,67z"/>
  <path style="stroke: rgb(255, 255, 255);" d="M147.5,102.1l-19.1-10.8 c-11.7-6.6-23.8-13.5-35.6-20.2c-1.1-0.6-1.5-1.4-1.5-2.6c0-9.7,0-16.8,0-25.1v-9.3c0-0.5,0.4-0.9,0.9-0.9l0,0 c0.5,0,0.9,0.4,0.9,0.9v9.3c0,8.2,0,15.4,0,25.1c0,0.5,0.1,0.7,0.6,1c11.9,6.7,24,13.6,35.6,20.2l17.3,9.8c0.3-0.7,0.5-1.3,0.7-2 c0.9-2.4,1.8-4.7,2.7-7.1c0.2-0.5,0.7-0.7,1.2-0.5c0.5,0.2,0.7,0.7,0.5,1.2c-0.9,2.3-1.8,4.6-2.7,7c-0.4,1-0.7,2-1.1,3 C147.8,101.1,147.5,102.1,147.5,102.1z"/>
  <path style="stroke: rgb(255, 255, 255);" d="M143.8,92.1c-0.2,0-0.3,0-0.4-0.1l-8-4.6 c-11.7-6.6-23.8-13.5-35.6-20.2c-1.1-0.6-1.5-1.4-1.5-2.6c0-9.4,0-12.1,0-17.8v-8.5c0-0.5,0.4-0.9,0.9-0.9l0,0 c0.5,0,0.9,0.4,0.9,0.9v8.5c0,5.7,0,8.4,0,17.8c0,0.5,0.1,0.7,0.6,1c11.9,6.7,24,13.6,35.6,20.2l8,4.6c0.4,0.2,0.6,0.8,0.3,1.2 C144.4,92,144.1,92.1,143.8,92.1L143.8,92.1z"/>
  <path style="stroke: rgb(255, 255, 255);" d="M141.3,64.5c-0.2,0-0.3,0-0.4-0.1l-7.3-4.2 c-10.7-6.1-19.2-10.9-31.1-17.6c-0.4-0.2-0.6-0.8-0.3-1.2c0.2-0.4,0.8-0.6,1.2-0.3c12,6.8,20.4,11.6,31.1,17.6l7.3,4.2 c0.4,0.2,0.6,0.8,0.3,1.2C141.9,64.4,141.6,64.5,141.3,64.5z"/>
  <path style="stroke: rgb(255, 255, 255);" d="M147.8,87.6c-0.2,0-0.3,0-0.4-0.1 c-8.3-4.7-15.6-8.8-23.3-13.2c-5.9-3.3-11.8-6.7-18.3-10.4c-0.9-0.5-1.3-1.2-1.3-2.3c0-2.1,0-4.3,0-6.4c0-0.8,0-1.6,0-2.4v-5.1 l50.1,28.5c0.4,0.2,0.6,0.8,0.3,1.2c-0.2,0.4-0.8,0.6-1.2,0.3l-47.4-26.9v2c0,0.8,0,1.6,0,2.4c0,2.1,0,4.3,0,6.4 c0,0.4,0,0.5,0.4,0.7c6.5,3.7,12.4,7.1,18.3,10.4c7.7,4.4,15,8.5,23.3,13.2c0.4,0.2,0.6,0.8,0.3,1.2 C148.4,87.5,148.1,87.6,147.8,87.6L147.8,87.6z"/>
  <path style="stroke: rgb(255, 255, 255);" d="M140.3,56.1L92.6,29 c-0.4-0.2-0.6-0.8-0.3-1.2s0.8-0.6,1.2-0.3l43.6,24.8c-4.4-11-18-29.3-44.1-31.6c-0.5,0-0.9-0.5-0.8-1s0.5-0.8,1-0.8 c28.9,2.6,43,24.1,46.5,35.1L140.3,56.1L140.3,56.1z"/>
  <path style="stroke: rgb(255, 255, 255);" d="M88.4,137.3c-0.4,0-0.8,0-1.2,0 c-22.2-0.3-40.4-10.1-54.3-29c-0.3-0.4-0.2-1,0.2-1.3c0.4-0.3,1-0.2,1.3,0.2c13.5,18.4,31.3,28,52.9,28.3 c22.6,0.4,41.2-9.2,55.2-28.3c0.3-0.4,0.9-0.5,1.3-0.2c0.4,0.3,0.5,0.9,0.2,1.3C129.7,127.5,111,137.3,88.4,137.3z"/>
  <path style="stroke: rgb(255, 255, 255);" d="M88.7,130.4c-0.5,0-1,0-1.6,0h0 c-24.1-1.8-35.6-9.8-45.5-21.3c-0.3-0.4-0.3-0.9,0.1-1.3c0.4-0.3,0.9-0.3,1.3,0.1c7.7,9,18.1,18.7,44.3,20.6 c22.6,0.3,33.3-6.7,46.3-20.7c0.3-0.4,0.9-0.4,1.3,0c0.4,0.3,0.4,0.9,0,1.3C122.1,122.9,110.8,130.4,88.7,130.4L88.7,130.4z"/>
  <path style="stroke: rgb(255, 255, 255);" d="M146.5,105.9c-0.1,0-0.3,0-0.4-0.1 c-0.8-0.5-2.3-1.3-3.9-2.1c-2.1-1.1-4.3-2.3-5.2-2.9c-0.4-0.2-0.5-0.8-0.3-1.1c0.2-0.4,0.7-0.5,1.1-0.3c0.9,0.6,3.1,1.7,5.2,2.8 c1.6,0.8,3.1,1.6,3.9,2.1c0.4,0.2,0.5,0.7,0.3,1.1C147.1,105.7,146.8,105.9,146.5,105.9L146.5,105.9z"/>
  <path style="stroke: rgb(255, 255, 255);" d="M86.7,125.1c-0.7,0-1.4,0-2.1-0.1 c-1.2-0.1-2.4-0.2-3.6-0.4c-0.5-0.1-1.1-0.2-1.6-0.2l-0.7-0.1l-0.3-1.7L123,97.3l-1-0.6c-3.3-1.9-6.4-3.6-9.5-5.4 c-0.1,0-0.3,0.1-0.4,0.1c-3.4,1.9-6.8,3.9-10.2,5.7l-7.1,4c-9.9,5.6-20.1,11.4-30.2,17.1c-0.7,0.4-1.9,0.4-2.6,0 c-1.8-1-3.6-2.1-5.2-3.3c-1.1-0.8-2.1-1.6-3.2-2.4c-0.5-0.4-1-0.8-1.5-1.2l-1.1-0.8l8.8-5c5.5-3.1,10.9-6.2,16.3-9.3 c5.7-3.2,11.3-6.4,17-9.7l5.7-3.2c-1-0.6-1.9-1.1-2.9-1.6c-2.2-1.3-4.6-2.6-6.8-3.9c-0.6-0.4-1-0.4-1.7,0 c-8,4.6-18.1,10.3-27.8,15.7C52.2,98,45.1,102,39,105.5c-0.4,0.2-1,0.1-1.2-0.3c-0.2-0.4-0.1-1,0.3-1.2c6.1-3.5,13.2-7.5,20.7-11.7 c9.7-5.5,19.7-11.2,27.8-15.7c1.2-0.7,2.3-0.7,3.5,0c2.2,1.3,4.6,2.6,6.8,3.9c1,0.6,2.1,1.2,3.1,1.7c0.3,0.1,0.5,0.3,0.7,0.5 c0.1,0.1,0.3,0.2,0.4,0.3l1.2,0.8l-8.2,4.7c-5.7,3.2-11.4,6.4-17,9.7c-5.4,3.1-10.8,6.1-16.3,9.3l-6.5,3.7c0.2,0.1,0.3,0.2,0.4,0.3 c1.1,0.8,2.1,1.6,3.1,2.4c1.6,1.1,3.3,2.2,5.1,3.2c0.2,0.1,0.7,0.1,0.8,0c10.1-5.7,20.3-11.5,30.2-17.1l7.1-4 c3.3-1.9,6.8-3.9,10.2-5.8c0.2-0.1,1.2-0.7,2-0.2c3.2,1.8,6.3,3.5,9.6,5.4l3.7,2.1l-45,25.6c1,0.2,2.1,0.3,3.1,0.3 c14.7,0.8,30.8-7.8,41-16.1c0.4-0.3,1-0.3,1.3,0.1c0.3,0.4,0.3,1-0.1,1.3c-6,4.9-12.9,9.1-19.8,12C99.8,123.6,93,125.1,86.7,125.1 L86.7,125.1z"/>
  <path style="stroke: rgb(255, 255, 255);" d="M48.6,107.1c-0.3,0-0.6-0.2-0.8-0.5 c-0.2-0.4-0.1-1,0.3-1.2c5-2.8,10.9-6.2,16.9-9.6c8-4.5,16.2-9.1,22.8-12.9c0.4-0.2,1-0.1,1.2,0.3c0.2,0.4,0.1,1-0.3,1.2 C82.2,88.3,74,92.9,66,97.4c-6,3.4-11.9,6.7-16.9,9.6C48.9,107.1,48.8,107.1,48.6,107.1z"/>
  <path style="stroke: rgb(255, 255, 255);" d="M72.2,120.7c-0.3,0-0.6-0.2-0.8-0.5 c-0.2-0.4-0.1-1,0.3-1.2c5-2.8,10.9-6.2,16.9-9.6c8-4.5,16.2-9.1,22.8-12.9c0.4-0.2,1-0.1,1.2,0.3s0.1,1-0.3,1.2 c-6.6,3.8-14.8,8.4-22.8,12.9c-6,3.4-11.9,6.7-16.9,9.6C72.5,120.7,72.4,120.7,72.2,120.7L72.2,120.7z"/>
  <path style="stroke: rgb(255, 255, 255);" d="M91.5,20.6c-0.5,0-0.9-0.4-0.9-0.9V7.6 c0-0.5,0.4-0.9,0.9-0.9s0.9,0.4,0.9,0.9v12.1C92.4,20.2,92,20.6,91.5,20.6z"/>
</svg>